<svg width="123" height="90" viewBox="0 0 123 90" fill="none" xmlns="http://www.w3.org/2000/svg">
<path d="M61.5931 38.6414C40.7989 -8.89406 -5.70848 -0.62703 1.75954 2.78761C9.8089 6.47183 4.84512 43.0445 18.6632 43.4039C22.7773 43.5387 51.8445 43.4938 71.6995 43.359C94.0589 43.2242 131.265 52.2101 94.0141 88.1537C84.1313 97.6787 61.6826 68.2948 61.6378 46.9983C61.5484 41.0676 61.5931 38.6414 61.5931 38.6414Z" fill="#0D457E"/>
<path d="M61.5037 38.6413C82.2532 -8.89413 128.761 -0.582171 121.337 2.78754C113.288 6.47176 118.252 43.0444 104.434 43.4038C100.32 43.5386 71.2524 43.4937 51.3973 43.3589C29.0379 43.2241 -8.16797 52.21 29.0827 88.1536C38.9655 97.6787 61.4143 68.2948 61.459 46.9982C61.5484 41.0675 61.5037 38.6413 61.5037 38.6413Z" fill="#0D457E"/>
<path fill-rule="evenodd" clip-rule="evenodd" d="M101.259 36.5746C101.348 36.6196 101.572 36.6196 101.661 36.5297C101.706 36.4848 101.795 36.3949 101.885 36.2601C101.974 36.1253 101.974 36.0804 101.974 36.0355C101.974 35.9906 101.885 35.9456 101.84 35.9007C101.75 35.8558 101.527 35.8558 101.482 35.9007C101.437 35.9007 101.393 35.9456 101.348 35.9906C101.303 36.0355 101.303 36.0355 101.259 36.1703C101.259 36.2152 101.259 36.2601 101.214 36.3051C101.124 36.4848 101.169 36.5297 101.259 36.5746ZM78.3626 36.6196C78.452 36.6196 78.4968 36.5746 78.4968 36.4848C78.4521 36.35 77.826 36.0804 77.3341 36.0355C76.8869 35.9906 76.395 36.0804 76.1267 36.1254C76.3503 35.6761 76.7527 34.9572 77.0658 34.463C77.5129 34.418 77.9154 34.3282 78.0943 34.3282C78.5415 34.3282 78.9887 34.6427 79.1229 34.6427C79.2123 34.6427 79.2123 34.5977 79.2123 34.5528C79.2123 34.5079 78.7651 33.7441 77.3788 33.7441C76.3056 33.7441 75.2771 34.1035 74.8746 34.1035C74.4721 34.1035 74.4721 34.0586 74.3379 34.0586C74.2038 34.0586 74.159 34.1485 74.159 34.2383C74.2038 34.3731 74.651 34.6427 75.2323 34.6427C75.4112 34.6427 75.7689 34.5977 76.1267 34.5528C75.7242 35.1818 75.3218 36.1703 75.3218 36.1703C75.3218 36.1703 75.1429 36.1703 75.0087 36.1703C74.651 36.1703 74.2932 36.0355 74.2485 36.0355C74.2038 36.0355 74.1143 36.0355 74.1143 36.1254C74.1143 36.2152 74.3379 36.3949 74.6062 36.4848C74.8298 36.5746 75.1429 36.6196 75.1429 36.6196C75.1429 36.6196 74.3826 38.7762 74.3826 39.2704C74.3826 39.3603 74.3827 39.4052 74.4721 39.4052C74.5615 39.4052 74.651 39.4052 74.6957 39.3153C74.8746 38.8211 75.1429 38.1921 75.277 37.8776C75.3217 37.7428 75.8584 36.6645 75.8584 36.6645C75.8584 36.6645 77.513 36.4848 77.6918 36.4848C78.0496 36.5297 78.2732 36.6196 78.3626 36.6196ZM86.0542 36.5746C86.1437 36.6196 86.2778 36.6196 86.3673 36.5297C86.5461 36.35 86.6356 36.2152 86.6356 36.1254C86.6356 36.0804 86.6356 36.0355 86.5461 36.0355C86.5014 35.9906 86.3673 35.9906 86.2778 36.0355C86.1884 36.0355 86.1437 36.0804 86.099 36.1254C86.0542 36.1703 86.0542 36.2152 86.0095 36.3949C85.9648 36.5297 86.0095 36.5746 86.0542 36.5746ZM87.6194 38.4617C87.5747 38.4617 87.5747 38.1921 87.6641 37.9675C87.7535 37.7428 88.0219 37.2037 88.0666 37.2037C88.156 37.2037 88.3349 37.3384 88.3349 37.608C88.2902 37.9675 87.7536 38.4617 87.6194 38.4617ZM80.0619 38.8661C80.0172 39.0008 79.9277 39.2255 79.7489 39.2255C79.6147 39.2255 79.6595 39.0458 79.6595 39.0008C79.7042 38.7313 80.0172 38.4617 80.0172 38.4617C80.0172 38.4617 80.1067 38.6414 80.0619 38.8661ZM77.2446 37.9225C76.8869 38.282 76.5739 38.4617 76.5292 38.4617C76.4844 38.4617 76.5739 38.0573 76.9763 37.6979C77.4682 37.2486 77.7813 37.1587 77.826 37.1587C77.9154 37.2037 77.7813 37.3834 77.2446 37.9225ZM83.3264 35.092C83.8183 34.3282 84.2208 34.1035 84.3102 34.1035C84.4444 34.1035 84.3996 34.3731 84.3996 34.463C84.3102 34.8673 84.0419 35.2268 83.7288 35.5413C83.5053 35.8108 82.8345 36.3949 82.6109 36.5297C82.5662 36.5297 82.8345 35.8108 83.3264 35.092ZM91.0627 37.1138C91.0627 37.2935 90.8838 37.5631 90.8838 38.4168C90.8838 39.1806 91.1521 39.1806 91.1521 39.3603C91.1521 39.4501 91.1074 39.4501 91.0627 39.4501C90.7497 39.4501 90.4366 38.8661 90.4366 38.282C90.4366 37.653 90.5261 37.3834 90.4814 37.3834C90.4366 37.3834 90.2131 37.5631 90.0789 37.7428C89.8553 38.0124 89.6764 38.237 89.5423 38.4617C89.4528 38.6414 89.3634 38.7313 89.274 38.7762C89.2293 38.7762 89.2292 38.8211 89.0951 38.8211C88.9162 38.8211 88.8715 38.7762 88.8715 38.6863C88.8715 38.5066 89.1398 37.9225 89.2293 37.653C89.3187 37.3834 89.4975 37.1138 89.587 36.9341C89.2739 36.979 88.4243 37.1138 88.469 37.1587C88.6032 37.2037 88.6032 37.3384 88.6032 37.5182C88.6032 38.0124 88.2901 38.4168 88.0218 38.5965C87.7982 38.7762 87.5747 38.7762 87.4852 38.7762C87.2616 38.7762 86.9933 38.6414 86.9933 38.3269C86.9933 38.1472 87.038 37.9675 87.0827 37.8327C86.9486 37.9675 86.6803 38.1921 86.5014 38.3269C86.1884 38.5965 85.9201 38.7762 85.7412 38.7762C85.294 38.7762 85.2493 38.3269 85.2493 38.1472C85.2493 37.8776 85.3387 37.6979 85.3387 37.6979C85.2493 37.7877 84.7574 38.237 84.5338 38.4168C84.2655 38.6863 84.0419 38.7762 83.9077 38.7762C83.6841 38.7762 83.4605 38.6863 83.4605 38.3269C83.4605 38.0573 83.7289 37.2486 83.6841 37.2486C83.5947 37.2486 83.4605 37.2935 83.2817 37.4283C82.8792 37.6979 82.3873 38.1023 81.9848 38.5515C81.8954 38.6863 81.7613 38.7762 81.5824 38.7762C81.4035 38.7762 81.2693 38.7313 81.2693 38.5965C81.2693 38.3718 81.3588 37.9675 81.4929 37.5182C81.314 37.608 80.8221 37.9225 80.4197 38.1921C80.4197 38.1921 80.5091 38.4168 80.5091 38.6414C80.5091 38.8211 80.4197 39.0458 80.3302 39.1806C80.1961 39.3603 80.0619 39.4501 79.7936 39.4501C79.6148 39.4501 79.4359 39.3153 79.4359 39.1356C79.4359 38.8211 79.6148 38.6414 80.0619 38.237C79.8831 38.0124 79.7936 37.7428 79.7936 37.5631C79.4359 37.8776 78.8098 38.4168 78.7204 38.5066C78.4968 38.6414 78.3626 38.7313 78.1837 38.7313C78.0496 38.7313 77.9601 38.6863 77.9154 38.5965C77.7813 38.4617 77.7366 38.282 77.7813 38.1023C77.7813 38.0573 77.7813 38.0124 77.7813 38.0124C77.7813 38.0124 77.7366 38.0573 77.6471 38.1472C77.4682 38.3269 77.2446 38.4617 77.0658 38.5965C76.9316 38.6863 76.7974 38.7313 76.6186 38.7313C76.395 38.7313 76.2609 38.5965 76.2609 38.4168C76.2609 37.608 77.4235 36.9341 77.9601 36.9341C78.1837 36.9341 78.2285 36.979 78.3179 37.0239C78.3626 36.979 78.4073 36.9341 78.4968 36.9341C78.6757 36.9341 78.8098 36.9341 78.8098 37.0689C78.8098 37.1587 78.6756 37.2486 78.5862 37.4732C78.452 37.653 78.3179 37.9675 78.3179 38.1472C78.3179 38.237 78.3179 38.4617 78.3626 38.4617C78.452 38.4617 79.57 37.5182 79.8831 37.2486C79.9278 36.7544 80.2855 36.5746 80.6432 36.5746C80.9116 36.5746 80.9563 36.6645 80.9563 36.7544C80.9563 36.8442 80.8669 36.8892 80.7774 36.9341C80.5538 37.1138 80.4197 37.3384 80.4197 37.5631C80.4197 37.7877 80.4644 37.8776 80.4644 37.8776C80.7327 37.6979 81.7165 37.1138 81.7165 37.0689C81.8954 36.6196 82.0743 36.1703 82.2532 35.8108C83.1923 34.0137 84.176 33.6992 84.4443 33.6992C84.7574 33.6992 84.8915 33.8339 84.8915 34.1485C84.8915 34.5528 84.3549 35.3166 83.9524 35.6761C82.9686 36.6196 82.5662 36.7544 82.5662 36.7993C82.432 37.0689 82.119 37.8776 82.1637 37.8776C82.2084 37.8776 83.2369 36.7544 83.9971 36.7544C84.3102 36.7544 84.4443 36.979 84.4443 37.2037C84.4443 37.4732 84.0419 38.282 84.176 38.282C84.2655 38.282 85.7412 36.9341 85.7412 36.9341C85.8753 36.7993 85.9648 36.7544 86.1437 36.7544C86.3225 36.7544 86.412 36.7993 86.412 36.8892C86.412 37.0239 86.2331 37.2935 86.099 37.608C85.9648 37.9675 85.8753 38.282 85.9648 38.282C86.0542 38.282 86.9933 37.5631 87.4852 37.0239C87.5747 36.8892 87.6641 36.7993 87.7535 36.7993C87.8877 36.7544 88.0666 36.7993 88.156 36.7993C88.2454 36.7544 88.961 36.5746 89.9 36.4848H89.9895C90.1683 36.4848 90.1683 36.4848 90.2131 36.4848C90.2578 36.4848 90.3025 36.5297 90.3025 36.6645C90.3025 36.7993 90.0342 37.3384 90.0342 37.3834C90.0342 37.4283 90.3025 37.0239 90.7497 36.8442C90.8839 36.7544 91.018 36.7993 91.1074 36.7993C91.0627 36.9341 91.0627 36.979 91.0627 37.1138ZM105.462 37.9225C105.104 38.282 104.791 38.4617 104.747 38.4617C104.702 38.4617 104.791 38.0573 105.194 37.6979C105.686 37.2486 105.999 37.1587 106.043 37.1587C106.133 37.2037 105.999 37.3834 105.462 37.9225ZM97.4127 41.1575C97.2786 41.3372 97.1444 41.5618 96.9209 41.5618C96.7867 41.5618 96.7867 41.3821 96.7867 41.2922C96.7867 40.3487 98.2177 39.3153 98.2177 39.3603C98.2624 39.3153 97.6363 40.8879 97.4127 41.1575ZM97.7705 37.9225C97.5469 38.1472 97.1445 38.4617 97.0103 38.4617C96.9209 38.4617 96.9656 38.0573 97.5469 37.5631C98.0835 37.1138 98.5308 37.0239 98.5755 37.0689C98.5755 37.2037 98.173 37.608 97.7705 37.9225ZM95.7135 37.2486C95.6688 37.3834 95.5793 37.608 95.5346 37.608C95.4004 37.653 95.0427 37.653 95.1321 37.1587C95.1768 36.979 95.4004 36.5746 95.624 36.5746C95.937 36.6196 95.7582 37.1587 95.7135 37.2486ZM94.7296 38.4617C94.5955 38.4617 94.6402 38.237 94.6849 38.1472C94.7296 38.0124 94.7744 37.9225 94.8638 37.7428C95.0427 37.8327 95.1321 37.8776 95.4004 37.8776C95.4004 37.9225 94.9532 38.4617 94.7296 38.4617ZM93.567 35.1369C93.88 34.6427 94.3719 34.0586 94.7296 34.0586C94.8191 34.0586 94.8638 34.0137 94.8638 34.1934C94.8638 34.418 94.4166 35.1369 94.0141 35.5413C93.2539 36.3949 92.8068 36.6645 92.762 36.6645C92.7173 36.7094 93.1645 35.7659 93.567 35.1369ZM108.056 37.4732C108.145 37.4732 108.19 37.5182 108.19 37.5631C108.19 37.653 107.161 38.3718 106.893 38.5515C106.625 38.7313 106.446 38.7762 106.267 38.7762C106.133 38.7762 106.043 38.7313 105.954 38.6414C105.82 38.5066 105.775 38.3269 105.82 38.1472C105.82 38.1023 105.82 38.0573 105.82 38.0573C105.82 38.0573 105.775 38.1023 105.686 38.1921C105.507 38.3718 105.283 38.5066 105.104 38.6414C104.97 38.7313 104.836 38.7762 104.657 38.7762C104.434 38.7762 104.255 38.6414 104.255 38.4617C104.255 38.3718 104.255 38.237 104.299 38.1472C103.986 38.4168 103.181 38.8211 102.824 38.8211C102.645 38.8211 102.287 38.8211 102.287 38.237C102.287 38.1472 102.287 38.0573 102.332 38.0124C102.153 38.1472 101.929 38.3269 101.75 38.4168C101.393 38.6414 101.08 38.8211 100.901 38.7762C100.454 38.7313 100.454 38.3269 100.454 38.1023C100.454 37.9225 100.498 37.7428 100.543 37.6979C100.141 38.0124 99.0227 38.8211 99.0227 38.8661C99.0227 38.8661 98.486 40.4835 97.9494 41.1575C97.4575 41.8314 97.055 41.8314 96.9209 41.8314C96.6525 41.8314 96.5184 41.5618 96.5184 41.3372C96.5184 40.9777 96.6078 40.6632 97.055 40.0342C97.4575 39.4951 98.3519 38.8211 98.3519 38.8211L98.7543 37.3834C98.7543 37.3834 98.4413 37.7877 97.9047 38.237C97.5022 38.5515 97.2339 38.7313 96.9656 38.7313C96.742 38.7313 96.5184 38.6863 96.5184 38.3269C96.5184 38.0573 96.6973 37.6979 97.0103 37.4283C96.8314 37.4732 95.9818 37.7877 95.9371 37.7877C95.624 38.237 95.0874 38.6863 94.7744 38.6863C94.6402 38.6863 94.3719 38.7313 94.2824 38.3718C94.2377 38.282 94.2377 38.1472 94.2377 38.0573C93.9694 38.4168 93.3881 39.0008 92.7173 39.0008C92.1359 39.0008 91.8677 38.5066 91.8677 38.1023C91.8677 37.7877 91.9124 37.608 91.8677 37.608C91.8677 37.608 91.644 37.6979 91.5546 37.6979C91.4652 37.6979 91.4205 37.653 91.4205 37.608C91.4205 37.5182 91.9124 37.3384 91.9571 37.2935C92.4043 35.2717 93.88 33.789 94.8638 33.789C95.0427 33.789 95.2216 33.8789 95.2216 34.1934C95.2216 34.418 95.0874 34.8673 94.4166 35.6761C93.7011 36.5297 92.7173 37.1587 92.7173 37.1587C92.7173 37.1587 92.5832 37.4732 92.5832 38.0573C92.5832 38.4168 92.6279 38.7313 92.8515 38.7313C93.2987 38.7313 94.0589 37.9225 94.4613 37.5182C94.506 37.4283 94.7297 37.2486 94.7744 37.2037C94.8191 36.979 95.0874 36.3051 95.8476 36.3051C96.0712 36.3051 96.3395 36.4399 96.3395 36.7544C96.3395 37.1587 96.2054 37.4283 96.2054 37.4283C96.2054 37.4283 97.86 36.7993 97.9047 36.7993C98.173 36.6645 98.3966 36.5746 98.5755 36.5746C98.7543 36.5746 98.8885 36.6196 98.9332 36.6645C99.0226 36.7544 99.0674 36.7993 99.0674 36.8892C99.2462 36.8892 99.4251 36.9341 99.4251 37.1138C99.4251 37.2486 99.1568 38.3269 99.2015 38.3269C99.2015 38.3269 100.811 37.0689 100.856 37.0689C101.08 36.8892 101.124 36.8442 101.303 36.8442C101.482 36.8442 101.572 36.8892 101.572 36.979C101.572 37.1138 101.393 37.3834 101.214 37.6979C101.035 38.0573 100.946 38.3718 101.035 38.3718C101.214 38.4168 102.242 37.653 102.779 37.1138C102.913 36.979 103.137 36.7993 103.495 36.7993C103.673 36.7993 103.942 36.979 103.942 37.2037C103.942 37.3834 103.897 37.5631 103.718 37.5631C103.629 37.5631 103.539 37.5182 103.539 37.5182C103.539 37.4283 103.629 37.3834 103.629 37.2037C103.629 37.0689 103.539 36.979 103.495 36.979C103.316 36.979 103.047 37.4283 102.958 37.653C102.824 38.0573 102.824 38.3269 103.003 38.3269C103.226 38.3269 104.255 37.7428 104.836 37.2935C105.194 36.979 105.686 36.7544 106.043 36.7544C106.267 36.7544 106.312 36.7993 106.401 36.8442C106.446 36.7993 106.491 36.7544 106.58 36.7544C106.759 36.7544 106.893 36.7993 106.893 36.8892C106.893 36.979 106.759 37.0689 106.67 37.2935C106.535 37.4732 106.401 37.8776 106.401 38.0573C106.401 38.237 106.446 38.3269 106.491 38.3269C106.625 38.3269 106.983 38.1472 107.34 37.8776C107.653 37.6979 107.922 37.4732 108.056 37.4732Z" fill="#0D457E"/>
</svg>
